<?xml version="1.0" standalone="no"?>
<!DOCTYPE svg PUBLIC "-//W3C//DTD SVG 20010904//EN"
 "http://www.w3.org/TR/2001/REC-SVG-20010904/DTD/svg10.dtd">
<svg version="1.0" xmlns="http://www.w3.org/2000/svg"
 width="450.000000pt" height="450.000000pt" viewBox="0 0 450.000000 450.000000"
 preserveAspectRatio="xMidYMid meet">
<metadata>
Created by potrace 1.11, written by Peter Selinger 2001-2013
</metadata>
<g transform="translate(0.000000,450.000000) scale(0.100000,-0.100000)"
fill="#000000" stroke="none">
<path d="M0 2250 l0 -2250 2250 0 2250 0 0 2250 0 2250 -2250 0 -2250 0 0
-2250z m1490 1271 c180 -40 355 -114 501 -211 104 -71 258 -221 331 -324 97
-138 185 -338 224 -511 26 -114 26 -426 0 -540 -119 -527 -517 -931 -1026
-1039 -140 -30 -254 -36 -677 -36 l-423 0 0 1346 0 1346 483 -4 c458 -4 487
-5 587 -27z m2500 -817 c0 -547 -4 -871 -11 -917 -43 -293 -200 -551 -443
-727 -172 -125 -399 -200 -606 -200 -101 0 -271 26 -282 43 -11 17 -10 545 1
551 5 4 31 -3 57 -15 74 -31 187 -44 284 -31 209 26 390 189 445 399 13 48 15
185 15 893 0 460 3 840 7 843 3 4 125 7 270 7 l263 0 0 -846z"/>
<path d="M965 2999 c-3 -8 -4 -369 -3 -804 l3 -790 200 1 c214 1 265 9 389 61
222 93 394 297 456 537 25 98 27 283 5 380 -66 284 -279 508 -560 591 -80 24
-112 28 -287 32 -163 5 -199 3 -203 -8z"/>
</g>
</svg>
